<svg width="115" height="32" viewBox="0 0 115 32" fill="none" xmlns="http://www.w3.org/2000/svg">
<g clip-path="url(#clip0)">
<path d="M9.38591 9.45494C9.38591 10.2642 9.9277 10.9208 11.0113 11.425C12.0949 11.9291 13.4138 12.3733 14.9681 12.7576C16.5501 13.1513 18.1071 13.6372 19.631 14.2129C21.1842 14.7988 22.5032 15.7786 23.5878 17.1521C24.6725 18.5256 25.2142 20.2425 25.2132 22.3028C25.2132 25.4172 24.0377 27.8114 21.6867 29.4852C19.3358 31.1591 16.4011 31.9974 12.8827 32C6.58481 32 2.29058 29.5961 0 24.7882L6.87093 20.9702C7.77017 23.5974 9.77382 24.9107 12.8819 24.9102C15.7036 24.9102 17.1144 24.041 17.1144 22.3028C17.1144 21.4957 16.5726 20.8392 15.489 20.3335C14.4055 19.8278 13.0868 19.3734 11.533 18.9701C9.94989 18.5572 8.39309 18.0514 6.87093 17.4553C5.32063 16.8526 3.95665 15.8602 2.91411 14.5763C1.83054 13.2635 1.28875 11.6171 1.28875 9.63706C1.28875 6.6472 2.40305 4.29369 4.63164 2.57653C6.86024 0.859372 9.63116 0.00052787 12.9444 0C15.438 0 17.7088 0.555847 19.7568 1.66754C21.8048 2.77923 23.4203 4.36496 24.6033 6.4247L17.855 10.0607C16.874 8.00198 15.2382 6.97263 12.9476 6.97263C11.9244 6.97263 11.0757 7.19487 10.4014 7.63933C9.72707 8.0838 9.38858 8.689 9.38591 9.45494Z" fill="#fff"/>
<path d="M29.6484 31.152V0.848812H37.5613V31.152H29.6484Z" fill="#fff"/>
<path d="M53.1369 23.8191H66.7553V31.152H42.5247V25.9403L55.4675 8.18251H43.1379V0.848812H66.1397V6.06126L53.1369 23.8191Z" fill="#fff"/>
<path d="M77.6079 19.2124C78.6706 23.013 81.5538 24.9133 86.2573 24.9133C89.2836 24.9133 91.5739 23.903 93.1282 21.8823L99.5086 25.5191C96.4818 29.8434 92.0238 32.0047 86.1347 32.0032C81.063 32.0032 76.9937 30.4882 73.9268 27.4582C70.8599 24.4282 69.3264 20.6088 69.3264 16C69.3264 11.4355 70.8396 7.62772 73.8659 4.57663C76.8922 1.52554 80.7774 0 85.5215 0C90.0193 0 93.7309 1.53557 96.6562 4.60672C99.5816 7.67787 101.044 11.4756 101.043 16C101.036 17.0776 100.934 18.1526 100.736 19.2124H77.6079ZM77.4853 13.1519H93.1298C92.6794 11.0932 91.7489 9.55788 90.3383 8.54595C88.9278 7.53402 87.3227 7.02885 85.5231 7.03043C83.3961 7.03043 81.6374 7.56596 80.2471 8.63701C78.8569 9.70805 77.9362 11.213 77.4853 13.1519Z" fill="#fff"/>
<path d="M113.133 30.4251C112.11 31.4349 110.883 31.9401 109.452 31.9406C108.02 31.9411 106.793 31.436 105.771 30.4251C104.749 29.4158 104.237 28.2036 104.237 26.7883C104.237 25.3731 104.749 24.1609 105.771 23.1516C106.793 22.1423 108.02 21.6374 109.452 21.6369C110.883 21.6363 112.11 22.1412 113.133 23.1516C114.155 24.163 114.666 25.3752 114.667 26.7883C114.667 28.2014 114.156 29.4137 113.133 30.4251Z" fill="#fff"/>
</g>
<defs>
<clipPath id="clip0">
<rect width="114.667" height="32" fill="black"/>
</clipPath>
</defs>
</svg>
