<svg width="1408" height="401" viewBox="0 0 1408 401" fill="none" xmlns="http://www.w3.org/2000/svg">
<rect width="1408" height="401" fill="black"/>
<path d="M115.25 115.823C115.25 125.736 121.903 133.78 135.208 139.956C148.514 146.131 164.709 151.573 183.794 156.28C203.22 161.103 222.339 167.056 241.05 174.108C260.123 181.286 276.318 193.287 289.636 210.113C302.955 226.939 309.607 247.971 309.594 273.209C309.594 311.361 295.161 340.689 266.293 361.194C237.425 381.699 201.39 391.968 158.187 392C80.8553 392 28.1261 362.552 0 303.656L84.3686 256.884C95.4104 289.068 120.013 305.156 158.178 305.15C192.825 305.15 210.149 294.503 210.149 273.209C210.149 263.322 203.496 255.281 190.191 249.086C176.886 242.891 160.694 237.324 141.615 232.383C122.175 227.326 103.059 221.129 84.3686 213.828C65.3324 206.445 48.5839 194.287 35.7826 178.56C22.4773 162.478 15.8246 142.309 15.8246 118.054C15.8246 81.4282 29.5072 52.5977 56.8723 31.5625C84.2374 10.5273 118.262 0.00646641 158.945 0C189.564 0 217.448 6.80912 242.595 20.4274C267.743 34.0456 287.58 53.4707 302.105 78.7026L219.242 123.243C207.197 98.0242 187.111 85.4147 158.985 85.4147C146.421 85.4147 135.999 88.1371 127.719 93.5818C119.439 99.0265 115.283 106.44 115.25 115.823Z" fill="white"/>
<path d="M364.055 381.612V10.3979H461.217V381.612H364.055Z" fill="white"/>
<path d="M652.471 291.784H819.693V381.612H522.164V317.769L681.089 100.236H529.693V10.3979H812.135V74.2505L652.471 291.784Z" fill="white"/>
<path d="M952.953 235.351C966.003 281.909 1001.4 305.189 1059.16 305.189C1096.32 305.189 1124.44 292.812 1143.53 268.058L1221.87 312.609C1184.71 365.581 1129.97 392.058 1057.65 392.039C995.378 392.039 945.411 373.48 907.752 336.363C870.093 299.246 851.264 252.458 851.264 196C851.264 140.085 869.844 93.4396 907.005 56.0637C944.165 18.6879 991.872 0 1050.13 0C1105.35 0 1150.93 18.8108 1186.85 56.4323C1222.77 94.0539 1240.72 140.576 1240.71 196C1240.63 209.201 1239.37 222.369 1236.94 235.351H952.953ZM951.447 161.111H1143.55C1138.02 135.892 1126.59 117.084 1109.27 104.688C1091.95 92.2918 1072.24 86.1034 1050.14 86.1228C1024.03 86.1228 1002.43 92.683 985.36 105.803C968.289 118.924 956.985 137.359 951.447 161.111Z" fill="white"/>
<path d="M1389.16 372.708C1376.61 385.078 1361.54 391.266 1343.96 391.273C1326.39 391.279 1311.32 385.091 1298.77 372.708C1286.21 360.344 1279.94 345.494 1279.94 328.157C1279.94 310.821 1286.21 295.971 1298.77 283.607C1311.32 271.243 1326.39 265.058 1343.96 265.052C1361.54 265.045 1376.61 271.23 1389.16 283.607C1401.71 295.997 1407.99 310.847 1408 328.157C1408.01 345.468 1401.73 360.318 1389.16 372.708Z" fill="white"/>
</svg>
