<svg version="1.1" id="Layer_1" xmlns="http://www.w3.org/2000/svg" xmlns:xlink="http://www.w3.org/1999/xlink" x="0px" y="0px"
	 width="100%" viewBox="0 0 505 98" enable-background="new 0 0 505 98" xml:space="preserve">
<path fill="#000000" opacity="1.000000" stroke="none" 
	d="
M136.000000,1.000000 
	C259.270721,1.000000 382.541412,1.000000 505.906067,1.000000 
	C505.906067,33.587223 505.906067,66.174805 505.906067,99.000000 
	C374.979187,99.000000 243.958252,99.000000 112.134171,98.732391 
	C117.421310,95.202766 122.717499,91.211601 125.320671,84.399239 
	C125.619415,83.617432 127.495110,83.235367 128.700439,83.036484 
	C135.428253,81.926430 139.074982,77.840668 138.979065,71.044357 
	C138.798096,58.222111 138.198959,45.397694 138.355301,32.581276 
	C138.484955,21.952389 141.234940,11.205976 136.000000,1.000000 
M213.497223,32.000332 
	C218.153519,31.999483 222.825729,32.208839 227.455551,31.858364 
	C228.701233,31.764067 230.687943,30.077316 230.832047,28.932472 
	C231.276245,25.403225 230.994034,21.782555 230.994034,17.999823 
	C225.527390,17.999823 220.721115,17.999800 215.914856,17.999825 
	C193.276688,17.999943 170.637863,18.089056 148.000992,17.917067 
	C143.990158,17.886595 142.579254,19.150650 142.946808,23.077299 
	C143.217514,25.969259 142.999939,28.906927 142.999939,32.000469 
	C166.627838,32.000469 189.562973,32.000469 213.497223,32.000332 
M187.590485,43.062454 
	C172.858459,43.062454 158.126450,43.062454 143.263855,43.062454 
	C143.263855,48.534821 143.263855,52.589790 143.263855,56.997105 
	C167.273605,56.997105 191.021317,57.020790 214.768402,56.909298 
	C215.704575,56.904903 217.098038,55.809860 217.493988,54.886585 
	C220.545593,47.770809 217.268784,43.018070 209.438293,43.003292 
	C202.428909,42.990067 195.419479,43.004803 187.590485,43.062454 
M159.425430,80.088417 
	C162.420410,80.058945 165.415359,80.006798 168.410355,80.004051 
	C179.497238,79.993881 190.584122,80.000000 201.700134,80.000000 
	C201.700134,75.392662 201.700134,71.336884 201.700134,67.000000 
	C185.791367,67.000000 170.180740,67.000000 154.570099,67.000000 
	C142.314606,67.000000 142.314606,67.000000 143.316544,80.081032 
	C148.373611,80.081032 153.491150,80.081032 159.425430,80.088417 
M281.678223,45.812904 
	C281.785248,37.515984 281.728760,29.212429 282.065186,20.924822 
	C282.245087,16.492300 280.460297,15.252321 275.956543,16.391998 
	C275.956543,23.267845 275.956543,30.261522 275.956543,38.701588 
	C271.835632,30.964333 268.677795,24.425314 264.855255,18.301172 
	C263.936981,16.829973 260.847382,16.421322 258.682526,16.176401 
	C257.902588,16.088163 256.145538,17.900482 256.125824,18.871685 
	C255.931107,28.465990 256.008118,38.065807 256.008118,47.730606 
	C258.217468,47.730606 259.941864,47.730606 262.232880,47.730606 
	C262.232880,40.551186 262.232880,33.624218 262.232880,25.698580 
	C266.226379,32.970318 269.467865,39.315884 273.149719,45.394733 
	C275.065765,48.558197 277.966095,49.643143 281.678223,45.812904 
M288.000244,34.484390 
	C288.000244,35.813713 287.988342,37.143162 288.002106,38.472343 
	C288.113922,49.249905 286.646942,47.592014 297.010040,48.072403 
	C312.730286,48.801117 315.699982,35.343441 312.163300,24.782480 
	C309.627258,17.209648 296.812775,12.624207 289.640106,16.323128 
	C288.705048,16.805332 288.128021,18.742014 288.073669,20.033987 
	C287.885193,24.512499 288.000519,29.003796 288.000244,34.484390 
M390.067902,27.653481 
	C387.843781,34.252857 385.619690,40.852230 383.484863,47.186695 
	C388.733185,49.401291 390.162170,46.746132 390.678894,43.558578 
	C391.164825,40.560921 392.766693,39.378014 395.397339,40.075233 
	C398.406616,40.872795 402.934692,37.322144 404.268768,43.395462 
	C405.073425,47.058681 407.503754,49.377701 412.202057,47.395531 
	C409.155060,38.953876 405.806305,30.571932 403.151550,21.975657 
	C401.629608,17.047581 399.491180,14.542586 394.275330,16.399979 
	C393.008026,19.969051 391.762329,23.477297 390.067902,27.653481 
M323.999786,23.572632 
	C323.999786,21.128731 323.999786,18.684828 323.999786,15.958931 
	C321.692169,16.063995 319.966614,16.142561 318.002075,16.232006 
	C318.002075,23.600042 317.578796,30.607521 318.203613,37.520267 
	C318.465515,40.417797 320.366669,43.738220 322.544861,45.770790 
	C326.877289,49.813488 332.286835,49.209805 337.437714,47.105316 
	C342.075073,45.210629 343.216125,41.380726 343.052917,36.674881 
	C342.833862,30.359129 342.995117,24.030418 342.965149,17.707401 
	C342.962982,17.243788 342.735229,16.781240 342.597565,16.262447 
	C341.119995,16.262447 339.731445,16.262447 338.000275,16.262447 
	C338.000275,17.807634 338.000366,19.115280 338.000244,20.422924 
	C337.999756,25.414968 338.122223,30.410910 337.964264,35.397968 
	C337.804047,40.455280 334.853546,43.952152 331.054138,43.991978 
	C327.016205,44.034302 324.042755,40.274364 324.004761,35.030582 
	C323.979462,31.536333 323.999847,28.041754 323.999786,23.572632 
M368.166229,47.562222 
	C370.749542,47.172035 375.147095,47.498669 375.629272,46.278282 
	C379.497162,36.489105 382.625793,26.407820 386.021362,16.294527 
	C380.348663,15.891631 380.364746,15.897177 378.742462,20.602861 
	C376.526672,27.030005 374.283417,33.447689 371.753082,40.729546 
	C368.776215,31.823477 366.175720,24.043354 363.571136,16.251049 
	C361.747742,16.251049 359.983246,16.251049 357.246552,16.251049 
	C360.956909,26.753609 364.486176,36.743557 368.166229,47.562222 
M474.875641,20.363091 
	C474.875641,18.968611 474.875641,17.574131 474.875641,16.380840 
	C468.543488,16.380840 462.823700,16.380840 457.387604,16.380840 
	C457.387604,27.144156 457.387604,37.523701 457.387604,47.996483 
	C462.759949,47.996483 467.751434,48.130707 472.725159,47.893085 
	C473.835938,47.840015 474.884369,46.481476 475.961487,45.723961 
	C474.867615,44.817039 473.842102,43.249748 472.666931,43.128098 
	C469.260101,42.775417 465.793121,43.003201 462.272675,43.003201 
	C462.272675,39.768341 462.272675,37.043983 462.272675,33.995674 
	C465.336456,33.995674 468.160522,34.225040 470.913544,33.882790 
	C472.015228,33.745827 472.960358,32.349625 473.976776,31.526625 
	C472.978363,30.685822 472.050262,29.247105 470.967926,29.119808 
	C468.079956,28.780136 465.125671,29.004213 462.347473,29.004213 
	C462.347473,25.965712 462.347473,23.573517 462.347473,20.916315 
	C466.501709,20.916315 470.310669,20.916315 474.875641,20.363091 
M486.000061,36.921822 
	C486.000153,38.912960 485.986511,40.904217 486.002960,42.895218 
	C486.046478,48.165073 486.212250,48.293480 492.409119,47.344921 
	C488.914551,35.426411 497.974030,26.819757 501.502991,15.607364 
	C492.415619,16.267538 493.503326,24.695950 489.282562,28.465065 
	C487.800262,25.500044 486.106506,22.418396 484.696381,19.212017 
	C483.023682,15.408622 480.593475,15.092002 477.300934,17.036278 
	C480.251892,23.484661 483.124573,29.762051 486.000061,36.921822 
M426.508667,43.000374 
	C424.755707,43.000374 423.002716,43.000374 420.840454,43.000374 
	C420.840454,33.655525 420.840454,24.934988 420.840454,15.960454 
	C418.682556,16.062675 416.957977,16.144369 415.000275,16.237108 
	C415.000275,23.255224 415.000366,29.871796 415.000305,36.488369 
	C415.000183,48.001293 415.000122,48.001263 426.479187,48.000160 
	C428.583710,47.999958 430.688232,48.000130 433.065765,48.000130 
	C432.929230,46.016502 432.833344,44.623741 432.721619,43.000271 
	C430.727570,43.000271 429.088593,43.000271 426.508667,43.000374 
M441.999969,28.506880 
	C441.999969,24.412985 441.999969,20.319090 441.999969,15.955646 
	C439.684601,16.063120 437.960358,16.143156 436.298523,16.220295 
	C436.298523,26.995672 436.298523,37.356079 436.298523,47.996437 
	C441.378235,47.996437 446.170135,48.141144 450.940338,47.883820 
	C451.992432,47.827061 452.967651,46.345467 453.978271,45.519993 
	C452.981171,44.681297 452.054260,43.246510 450.973358,43.119202 
	C448.094360,42.780113 445.149078,43.003906 442.000000,43.003906 
	C442.000000,38.081577 442.000000,33.791004 441.999969,28.506880 
M244.001450,45.247540 
	C244.109680,50.371861 247.604904,47.109913 249.768555,48.082760 
	C249.768555,37.134991 249.768555,26.754688 249.768555,16.250027 
	C247.811996,16.250027 246.089478,16.250027 244.000229,16.250027 
	C244.000229,25.757629 244.000229,35.022491 244.001450,45.247540 
M225.871735,16.892422 
	C226.428680,16.564049 227.016968,16.278790 227.537415,15.900237 
	C230.725174,13.581676 230.375641,10.695069 228.837769,7.621960 
	C227.097183,4.143791 223.809799,4.546512 221.070740,5.192264 
	C218.292664,5.847211 216.646439,7.919253 216.933502,11.361826 
	C217.356506,16.434958 217.900467,16.995071 225.871735,16.892422 
z"/>
<path fill="#EEC924" opacity="1.000000" stroke="none" 
	d="
M135.531342,1.000000 
	C141.234940,11.205976 138.484955,21.952389 138.355301,32.581276 
	C138.198959,45.397694 138.798096,58.222111 138.979065,71.044357 
	C139.074982,77.840668 135.428253,81.926430 128.700439,83.036484 
	C127.495110,83.235367 125.619415,83.617432 125.320671,84.399239 
	C122.717499,91.211601 117.421310,95.202766 111.665512,98.732391 
	C106.977905,99.000000 101.955818,99.000000 96.799599,98.743332 
	C91.516548,94.917839 85.812973,91.949829 83.634766,85.335152 
	C83.391998,84.597908 81.415771,84.076050 80.235329,84.060226 
	C72.086174,83.951042 63.934860,84.002762 55.862175,84.002762 
	C52.633209,89.851852 49.477715,95.545204 42.380928,97.262955 
	C42.128586,97.324036 42.121429,98.398064 42.000000,99.000000 
	C36.977909,99.000000 31.955816,99.000000 26.799999,98.741524 
	C20.050640,94.641411 14.203663,90.122742 12.748925,82.555862 
	C8.473157,81.625710 4.736579,80.812851 1.000000,80.000000 
	C1.000000,75.643097 1.000000,71.286201 1.261087,66.799576 
	C5.116264,64.464981 6.479959,61.407555 6.092618,57.095776 
	C5.678174,52.482288 5.791759,47.789288 6.095119,43.158520 
	C6.224019,41.190884 6.948125,38.869423 8.223190,37.443138 
	C12.089999,33.117741 16.247169,29.030672 20.517540,25.096405 
	C22.603769,23.174376 25.071560,20.661787 27.576555,20.396175 
	C33.911789,19.724434 40.365852,20.173378 46.996731,20.173378 
	C46.996731,18.566732 47.015305,17.756845 46.993736,16.948030 
	C46.844204,11.340090 46.287865,5.613057 51.581505,1.636880 
	C51.387669,1.424588 51.193832,1.212295 51.000000,1.000001 
	C79.020897,1.000000 107.041786,1.000000 135.531342,1.000000 
M102.165581,11.980378 
	C99.975967,11.980378 97.786362,11.980378 94.871841,11.980378 
	C100.520439,17.039267 105.359222,21.456337 110.291275,25.766684 
	C115.280579,30.127075 120.362236,34.381809 126.161758,39.329807 
	C126.161758,30.890366 126.161758,23.448442 126.558739,15.373299 
	C125.792953,13.934336 125.039352,11.257351 124.259483,11.249676 
	C117.177895,11.179988 110.091728,11.576248 102.165581,11.980378 
M46.781281,29.269804 
	C41.781517,28.849628 36.785511,28.364969 31.778263,28.073256 
	C30.951382,28.025084 29.923059,28.651569 29.246893,29.256052 
	C25.199080,32.874729 21.208975,36.558865 17.244543,40.269154 
	C16.422489,41.038509 15.185186,41.997169 15.165442,42.891247 
	C14.998686,50.442894 15.070306,57.999813 15.070306,66.583969 
	C24.534721,55.317562 35.183758,55.026955 46.787926,59.548092 
	C46.926498,58.608521 47.045506,57.801628 47.563862,56.275642 
	C47.430847,47.519787 47.297832,38.763931 46.781281,29.269804 
M65.993965,45.929527 
	C65.330620,41.239914 61.899918,43.534504 58.904152,42.922962 
	C58.904152,52.818832 58.904152,62.304562 58.904152,72.001740 
	C66.458778,72.001740 74.130096,71.693794 81.762741,72.104546 
	C87.317665,72.403473 93.053101,72.259171 94.942230,80.159889 
	C96.477135,86.579140 104.327072,89.438835 108.667877,85.893097 
	C111.281258,83.758377 113.713631,80.553543 114.612427,77.373207 
	C115.865379,72.939743 117.968430,71.636566 122.281670,71.836342 
	C123.806564,71.906967 126.778336,70.092445 126.778954,69.137093 
	C126.784584,60.453094 126.278862,51.768772 125.939278,43.488575 
	C122.716179,43.488575 120.169456,43.488575 117.546310,43.488575 
	C117.546310,52.608669 117.546310,61.239479 117.546310,69.768028 
	C110.967453,69.768028 104.689293,69.768028 97.942230,69.768028 
	C97.942230,63.143654 97.942230,56.735062 97.942230,50.301880 
	C93.397675,50.301880 89.336349,50.301880 85.320351,50.301880 
	C85.009277,56.182274 84.199127,61.798859 84.620956,67.321342 
	C84.857246,70.414894 83.235603,70.805176 81.576958,70.888885 
	C76.458054,71.147247 71.317818,70.983154 65.998940,70.983154 
	C65.998940,62.492237 65.998940,54.673904 65.993965,45.929527 
M45.107910,82.427277 
	C45.676605,80.455666 47.111107,78.258438 46.666172,76.550957 
	C44.587219,68.572716 36.058388,62.034237 27.692110,68.406174 
	C24.690279,70.692436 22.018650,75.618256 22.103128,79.272194 
	C22.258770,86.004219 25.496887,88.049767 31.725666,89.058617 
	C37.556526,90.003014 41.760494,87.864479 45.107910,82.427277 
M80.009140,19.485567 
	C82.628281,17.253712 85.247421,15.021855 88.792198,12.001227 
	C79.429436,12.001227 71.608047,12.016202 63.786766,11.994214 
	C60.431847,11.984782 58.700790,13.154296 58.922283,16.955502 
	C59.223404,22.123312 59.031796,27.322189 58.978043,32.506981 
	C58.960346,34.214211 58.714535,35.919075 58.465061,38.926693 
	C66.202370,31.963364 72.849434,25.981215 80.009140,19.485567 
z"/>
<path fill="#000000" opacity="1.000000" stroke="none" 
	d="
M50.531342,1.000001 
	C51.193832,1.212295 51.387669,1.424588 51.581505,1.636880 
	C46.287865,5.613057 46.844204,11.340090 46.993736,16.948030 
	C47.015305,17.756845 46.996731,18.566732 46.996731,20.173378 
	C40.365852,20.173378 33.911789,19.724434 27.576555,20.396175 
	C25.071560,20.661787 22.603769,23.174376 20.517540,25.096405 
	C16.247169,29.030672 12.089999,33.117741 8.223190,37.443138 
	C6.948125,38.869423 6.224019,41.190884 6.095119,43.158520 
	C5.791759,47.789288 5.678174,52.482288 6.092618,57.095776 
	C6.479959,61.407555 5.116264,64.464981 1.261087,66.334930 
	C1.000000,44.416084 1.000000,22.832172 1.000000,1.000000 
	C17.353390,1.000000 33.708038,1.000000 50.531342,1.000001 
z"/>
<path fill="#000000" opacity="1.000000" stroke="none" 
	d="
M42.468658,99.000000 
	C42.121429,98.398064 42.128586,97.324036 42.380928,97.262955 
	C49.477715,95.545204 52.633209,89.851852 55.862175,84.002762 
	C63.934860,84.002762 72.086174,83.951042 80.235329,84.060226 
	C81.415771,84.076050 83.391998,84.597908 83.634766,85.335152 
	C85.812973,91.949829 91.516548,94.917839 96.332733,98.743332 
	C78.312439,99.000000 60.624878,99.000000 42.468658,99.000000 
z"/>
<path fill="#000000" opacity="1.000000" stroke="none" 
	d="
M1.000000,80.469376 
	C4.736579,80.812851 8.473157,81.625710 12.748925,82.555862 
	C14.203663,90.122742 20.050640,94.641411 26.333138,98.741524 
	C17.750719,99.000000 9.501437,99.000000 1.000000,99.000000 
	C1.000000,92.981911 1.000000,86.960335 1.000000,80.469376 
z"/>
<path fill="#EEC923" opacity="1.000000" stroke="none" 
	d="
M212.997650,32.000401 
	C189.562973,32.000469 166.627838,32.000469 142.999939,32.000469 
	C142.999939,28.906927 143.217514,25.969259 142.946808,23.077299 
	C142.579254,19.150650 143.990158,17.886595 148.000992,17.917067 
	C170.637863,18.089056 193.276688,17.999943 215.914856,17.999825 
	C220.721115,17.999800 225.527390,17.999823 230.994034,17.999823 
	C230.994034,21.782555 231.276245,25.403225 230.832047,28.932472 
	C230.687943,30.077316 228.701233,31.764067 227.455551,31.858364 
	C222.825729,32.208839 218.153519,31.999483 212.997650,32.000401 
z"/>
<path fill="#EEC922" opacity="1.000000" stroke="none" 
	d="
M188.000275,43.034828 
	C195.419479,43.004803 202.428909,42.990067 209.438293,43.003292 
	C217.268784,43.018070 220.545593,47.770809 217.493988,54.886585 
	C217.098038,55.809860 215.704575,56.904903 214.768402,56.909298 
	C191.021317,57.020790 167.273605,56.997105 143.263855,56.997105 
	C143.263855,52.589790 143.263855,48.534821 143.263855,43.062454 
	C158.126450,43.062454 172.858459,43.062454 188.000275,43.034828 
z"/>
<path fill="#EEC922" opacity="1.000000" stroke="none" 
	d="
M159.017059,80.084724 
	C153.491150,80.081032 148.373611,80.081032 143.316544,80.081032 
	C142.314606,67.000000 142.314606,67.000000 154.570099,67.000000 
	C170.180740,67.000000 185.791367,67.000000 201.700134,67.000000 
	C201.700134,71.336884 201.700134,75.392662 201.700134,80.000000 
	C190.584122,80.000000 179.497238,79.993881 168.410355,80.004051 
	C165.415359,80.006798 162.420410,80.058945 159.017059,80.084724 
z"/>
<path fill="#EEC922" opacity="1.000000" stroke="none" 
	d="
M281.384766,46.143253 
	C277.966095,49.643143 275.065765,48.558197 273.149719,45.394733 
	C269.467865,39.315884 266.226379,32.970318 262.232880,25.698580 
	C262.232880,33.624218 262.232880,40.551186 262.232880,47.730606 
	C259.941864,47.730606 258.217468,47.730606 256.008118,47.730606 
	C256.008118,38.065807 255.931107,28.465990 256.125824,18.871685 
	C256.145538,17.900482 257.902588,16.088163 258.682526,16.176401 
	C260.847382,16.421322 263.936981,16.829973 264.855255,18.301172 
	C268.677795,24.425314 271.835632,30.964333 275.956543,38.701588 
	C275.956543,30.261522 275.956543,23.267845 275.956543,16.391998 
	C280.460297,15.252321 282.245087,16.492300 282.065186,20.924822 
	C281.728760,29.212429 281.785248,37.515984 281.384766,46.143253 
z"/>
<path fill="#EEC922" opacity="1.000000" stroke="none" 
	d="
M288.000244,33.987309 
	C288.000519,29.003796 287.885193,24.512499 288.073669,20.033987 
	C288.128021,18.742014 288.705048,16.805332 289.640106,16.323128 
	C296.812775,12.624207 309.627258,17.209648 312.163300,24.782480 
	C315.699982,35.343441 312.730286,48.801117 297.010040,48.072403 
	C286.646942,47.592014 288.113922,49.249905 288.002106,38.472343 
	C287.988342,37.143162 288.000244,35.813713 288.000244,33.987309 
M300.008087,21.003006 
	C298.090424,21.003006 296.172760,21.003006 294.309601,21.003006 
	C294.309601,28.697872 294.309601,35.771038 294.309601,42.818829 
	C302.516327,43.238171 305.862457,41.625282 306.968781,36.881943 
	C308.799530,29.032545 306.870941,24.022484 300.008087,21.003006 
z"/>
<path fill="#EEC922" opacity="1.000000" stroke="none" 
	d="
M390.292236,27.319511 
	C391.762329,23.477297 393.008026,19.969051 394.275330,16.399979 
	C399.491180,14.542586 401.629608,17.047581 403.151550,21.975657 
	C405.806305,30.571932 409.155060,38.953876 412.202057,47.395531 
	C407.503754,49.377701 405.073425,47.058681 404.268768,43.395462 
	C402.934692,37.322144 398.406616,40.872795 395.397339,40.075233 
	C392.766693,39.378014 391.164825,40.560921 390.678894,43.558578 
	C390.162170,46.746132 388.733185,49.401291 383.484863,47.186695 
	C385.619690,40.852230 387.843781,34.252857 390.292236,27.319511 
M400.837555,34.550777 
	C399.834076,30.846687 398.830597,27.142599 397.607544,22.627981 
	C396.148895,27.130953 394.967224,30.778822 393.618530,34.942329 
	C396.138092,34.942329 398.105011,34.942329 400.837555,34.550777 
z"/>
<path fill="#EEC922" opacity="1.000000" stroke="none" 
	d="
M323.999786,24.059977 
	C323.999847,28.041754 323.979462,31.536333 324.004761,35.030582 
	C324.042755,40.274364 327.016205,44.034302 331.054138,43.991978 
	C334.853546,43.952152 337.804047,40.455280 337.964264,35.397968 
	C338.122223,30.410910 337.999756,25.414968 338.000244,20.422924 
	C338.000366,19.115280 338.000275,17.807634 338.000275,16.262447 
	C339.731445,16.262447 341.119995,16.262447 342.597565,16.262447 
	C342.735229,16.781240 342.962982,17.243788 342.965149,17.707401 
	C342.995117,24.030418 342.833862,30.359129 343.052917,36.674881 
	C343.216125,41.380726 342.075073,45.210629 337.437714,47.105316 
	C332.286835,49.209805 326.877289,49.813488 322.544861,45.770790 
	C320.366669,43.738220 318.465515,40.417797 318.203613,37.520267 
	C317.578796,30.607521 318.002075,23.600042 318.002075,16.232006 
	C319.966614,16.142561 321.692169,16.063995 323.999786,15.958931 
	C323.999786,18.684828 323.999786,21.128731 323.999786,24.059977 
z"/>
<path fill="#EEC922" opacity="1.000000" stroke="none" 
	d="
M368.090820,47.147861 
	C364.486176,36.743557 360.956909,26.753609 357.246552,16.251049 
	C359.983246,16.251049 361.747742,16.251049 363.571136,16.251049 
	C366.175720,24.043354 368.776215,31.823477 371.753082,40.729546 
	C374.283417,33.447689 376.526672,27.030005 378.742462,20.602861 
	C380.364746,15.897177 380.348663,15.891631 386.021362,16.294527 
	C382.625793,26.407820 379.497162,36.489105 375.629272,46.278282 
	C375.147095,47.498669 370.749542,47.172035 368.090820,47.147861 
z"/>
<path fill="#EEC922" opacity="1.000000" stroke="none" 
	d="
M474.497620,20.639702 
	C470.310669,20.916315 466.501709,20.916315 462.347473,20.916315 
	C462.347473,23.573517 462.347473,25.965712 462.347473,29.004213 
	C465.125671,29.004213 468.079956,28.780136 470.967926,29.119808 
	C472.050262,29.247105 472.978363,30.685822 473.976776,31.526615 
	C472.960358,32.349625 472.015228,33.745827 470.913544,33.882790 
	C468.160522,34.225040 465.336456,33.995674 462.272675,33.995674 
	C462.272675,37.043983 462.272675,39.768341 462.272675,43.003201 
	C465.793121,43.003201 469.260101,42.775417 472.666931,43.128098 
	C473.842102,43.249748 474.867615,44.817039 475.961487,45.723969 
	C474.884369,46.481476 473.835938,47.840015 472.725159,47.893085 
	C467.751434,48.130707 462.759949,47.996483 457.387604,47.996483 
	C457.387604,37.523701 457.387604,27.144156 457.387604,16.380840 
	C462.823700,16.380840 468.543488,16.380840 474.875641,16.380840 
	C474.875641,17.574131 474.875641,18.968611 474.497620,20.639702 
z"/>
<path fill="#EEC922" opacity="1.000000" stroke="none" 
	d="
M485.998657,36.480629 
	C483.124573,29.762051 480.251892,23.484661 477.300934,17.036278 
	C480.593475,15.092002 483.023682,15.408622 484.696381,19.212017 
	C486.106506,22.418396 487.800262,25.500044 489.282562,28.465065 
	C493.503326,24.695950 492.415619,16.267538 501.502991,15.607364 
	C497.974030,26.819757 488.914551,35.426411 492.409119,47.344921 
	C486.212250,48.293480 486.046478,48.165073 486.002960,42.895218 
	C485.986511,40.904217 486.000153,38.912960 485.998657,36.480629 
z"/>
<path fill="#EEC922" opacity="1.000000" stroke="none" 
	d="
M426.979126,43.000320 
	C429.088593,43.000271 430.727570,43.000271 432.721619,43.000271 
	C432.833344,44.623741 432.929230,46.016502 433.065765,48.000130 
	C430.688232,48.000130 428.583710,47.999958 426.479187,48.000160 
	C415.000122,48.001263 415.000183,48.001293 415.000305,36.488369 
	C415.000366,29.871796 415.000275,23.255224 415.000275,16.237108 
	C416.957977,16.144369 418.682556,16.062675 420.840454,15.960454 
	C420.840454,24.934988 420.840454,33.655525 420.840454,43.000374 
	C423.002716,43.000374 424.755707,43.000374 426.979126,43.000320 
z"/>
<path fill="#EEC922" opacity="1.000000" stroke="none" 
	d="
M442.000000,29.003654 
	C442.000000,33.791004 442.000000,38.081577 442.000000,43.003906 
	C445.149078,43.003906 448.094360,42.780113 450.973358,43.119202 
	C452.054260,43.246510 452.981171,44.681297 453.978271,45.519989 
	C452.967651,46.345467 451.992432,47.827061 450.940338,47.883820 
	C446.170135,48.141144 441.378235,47.996437 436.298523,47.996437 
	C436.298523,37.356079 436.298523,26.995672 436.298523,16.220295 
	C437.960358,16.143156 439.684601,16.063120 441.999969,15.955646 
	C441.999969,20.319090 441.999969,24.412985 442.000000,29.003654 
z"/>
<path fill="#EEC922" opacity="1.000000" stroke="none" 
	d="
M244.000839,44.767448 
	C244.000229,35.022491 244.000229,25.757629 244.000229,16.250027 
	C246.089478,16.250027 247.811996,16.250027 249.768555,16.250027 
	C249.768555,26.754688 249.768555,37.134991 249.768555,48.082760 
	C247.604904,47.109913 244.109680,50.371861 244.000839,44.767448 
z"/>
<path fill="#565C5B" opacity="1.000000" stroke="none" 
	d="
M225.456497,16.931309 
	C217.900467,16.995071 217.356506,16.434958 216.933502,11.361826 
	C216.646439,7.919253 218.292664,5.847211 221.070740,5.192264 
	C223.809799,4.546512 227.097183,4.143791 228.837769,7.621960 
	C230.375641,10.695069 230.725174,13.581676 227.537415,15.900237 
	C227.016968,16.278790 226.428680,16.564049 225.456497,16.931309 
M225.219055,14.952001 
	C225.219055,14.952001 225.185898,14.663458 225.185898,14.663458 
	C225.185898,14.663458 224.923645,14.941063 224.766464,15.055772 
	C224.766464,15.055772 224.790573,15.330319 224.790573,15.330319 
	C224.790573,15.330319 225.051666,15.066114 225.219055,14.952001 
z"/>
<path fill="#000000" opacity="1.000000" stroke="none" 
	d="
M65.996452,46.392551 
	C65.998940,54.673904 65.998940,62.492237 65.998940,70.983154 
	C71.317818,70.983154 76.458054,71.147247 81.576958,70.888885 
	C83.235603,70.805176 84.857246,70.414894 84.620956,67.321342 
	C84.199127,61.798859 85.009277,56.182274 85.320351,50.301880 
	C89.336349,50.301880 93.397675,50.301880 97.942230,50.301880 
	C97.942230,56.735062 97.942230,63.143654 97.942230,69.768028 
	C104.689293,69.768028 110.967453,69.768028 117.546310,69.768028 
	C117.546310,61.239479 117.546310,52.608669 117.546310,43.488575 
	C120.169456,43.488575 122.716179,43.488575 125.939278,43.488575 
	C126.278862,51.768772 126.784584,60.453094 126.778954,69.137093 
	C126.778336,70.092445 123.806564,71.906967 122.281670,71.836342 
	C117.968430,71.636566 115.865379,72.939743 114.612427,77.373207 
	C113.713631,80.553543 111.281258,83.758377 108.667877,85.893097 
	C104.327072,89.438835 96.477135,86.579140 94.942230,80.159889 
	C93.053101,72.259171 87.317665,72.403473 81.762741,72.104546 
	C74.130096,71.693794 66.458778,72.001740 58.904152,72.001740 
	C58.904152,62.304562 58.904152,52.818832 58.904152,42.922962 
	C61.899918,43.534504 65.330620,41.239914 65.996452,46.392551 
z"/>
<path fill="#000000" opacity="1.000000" stroke="none" 
	d="
M47.164513,56.994732 
	C47.045506,57.801628 46.926498,58.608521 46.787926,59.548092 
	C35.183758,55.026955 24.534721,55.317562 15.070306,66.583969 
	C15.070306,57.999813 14.998686,50.442894 15.165442,42.891247 
	C15.185186,41.997169 16.422489,41.038509 17.244543,40.269154 
	C21.208975,36.558865 25.199080,32.874729 29.246893,29.256052 
	C29.923059,28.651569 30.951382,28.025084 31.778263,28.073256 
	C36.785511,28.364969 41.781517,28.849628 46.901085,30.102558 
	C47.068768,39.621784 47.116642,48.308258 47.164513,56.994732 
M21.370699,51.861485 
	C27.455009,56.860699 34.067226,52.542561 40.388687,52.495903 
	C40.947666,52.491779 41.557400,46.691887 41.961418,43.560375 
	C42.172432,41.924831 42.126793,40.222706 41.946453,38.578133 
	C41.688450,36.225342 40.674656,34.965649 37.841976,34.914360 
	C28.828049,34.751141 20.917532,42.178043 21.370699,51.861485 
z"/>
<path fill="#000000" opacity="1.000000" stroke="none" 
	d="
M45.035400,82.804283 
	C41.760494,87.864479 37.556526,90.003014 31.725666,89.058617 
	C25.496887,88.049767 22.258770,86.004219 22.103128,79.272194 
	C22.018650,75.618256 24.690279,70.692436 27.692110,68.406174 
	C36.058388,62.034237 44.587219,68.572716 46.666172,76.550957 
	C47.111107,78.258438 45.676605,80.455666 45.035400,82.804283 
z"/>
<path fill="#000000" opacity="1.000000" stroke="none" 
	d="
M126.161758,16.006521 
	C126.161758,23.448442 126.161758,30.890366 126.161758,39.329807 
	C120.362236,34.381809 115.280579,30.127075 110.291275,25.766684 
	C105.359222,21.456337 100.520439,17.039267 94.871841,11.980378 
	C97.786362,11.980378 99.975967,11.980378 103.050179,11.979251 
	C111.244553,11.978124 118.554337,11.978124 125.809906,11.978124 
	C125.962646,13.726914 126.062202,14.866717 126.161758,16.006521 
z"/>
<path fill="#000000" opacity="1.000000" stroke="none" 
	d="
M79.752823,19.742317 
	C72.849434,25.981215 66.202370,31.963364 58.465061,38.926693 
	C58.714535,35.919075 58.960346,34.214211 58.978043,32.506981 
	C59.031796,27.322189 59.223404,22.123312 58.922283,16.955502 
	C58.700790,13.154296 60.431847,11.984782 63.786766,11.994214 
	C71.608047,12.016202 79.429436,12.001227 88.792198,12.001227 
	C85.247421,15.021855 82.628281,17.253712 79.752823,19.742317 
z"/>
<path fill="#EDCA40" opacity="1.000000" stroke="none" 
	d="
M126.360245,15.689910 
	C126.062202,14.866717 125.962646,13.726914 125.809906,11.978124 
	C118.554337,11.978124 111.244553,11.978124 103.470840,11.907146 
	C110.091728,11.576248 117.177895,11.179988 124.259483,11.249676 
	C125.039352,11.257351 125.792953,13.934336 126.360245,15.689910 
z"/>
<path fill="#EECA2F" opacity="1.000000" stroke="none" 
	d="
M47.364189,56.635185 
	C47.116642,48.308258 47.068768,39.621784 47.092857,30.471693 
	C47.297832,38.763931 47.430847,47.519787 47.364189,56.635185 
z"/>
<path fill="#000000" opacity="1.000000" stroke="none" 
	d="
M300.436615,21.014660 
	C306.870941,24.022484 308.799530,29.032545 306.968781,36.881943 
	C305.862457,41.625282 302.516327,43.238171 294.309601,42.818829 
	C294.309601,35.771038 294.309601,28.697872 294.309601,21.003006 
	C296.172760,21.003006 298.090424,21.003006 300.436615,21.014660 
z"/>
<path fill="#000000" opacity="1.000000" stroke="none" 
	d="
M400.454773,34.746552 
	C398.105011,34.942329 396.138092,34.942329 393.618530,34.942329 
	C394.967224,30.778822 396.148895,27.130953 397.607544,22.627981 
	C398.830597,27.142599 399.834076,30.846687 400.454773,34.746552 
z"/>
<path fill="#6C726E" opacity="1.000000" stroke="none" 
	d="
M224.923645,14.941063 
	C224.923645,14.941063 225.185898,14.663458 225.185898,14.663458 
	C225.185898,14.663458 225.219055,14.952001 225.104675,14.976444 
	C224.990295,15.000889 224.923645,14.941063 224.923645,14.941063 
z"/>
<path fill="#6C726E" opacity="1.000000" stroke="none" 
	d="
M225.020981,15.033502 
	C225.051666,15.066114 224.790573,15.330319 224.790573,15.330319 
	C224.790573,15.330319 224.766464,15.055772 224.845062,14.998417 
	C224.923645,14.941063 224.990295,15.000889 225.020981,15.033502 
z"/>
<path fill="#EEC923" opacity="1.000000" stroke="none" 
	d="
M21.209726,51.467155 
	C20.917532,42.178043 28.828049,34.751141 37.841976,34.914360 
	C40.674656,34.965649 41.688450,36.225342 41.946453,38.578133 
	C42.126793,40.222706 42.172432,41.924831 41.961418,43.560375 
	C41.557400,46.691887 40.947666,52.491779 40.388687,52.495903 
	C34.067226,52.542561 27.455009,56.860699 21.209726,51.467155 
M34.525513,46.952007 
	C34.636295,45.334789 34.747078,43.717571 34.895775,41.546860 
	C32.234859,44.025890 30.294167,45.833927 27.664707,48.283649 
	C30.404415,47.953671 32.178455,47.740002 34.525513,46.952007 
z"/>
<path fill="#000000" opacity="1.000000" stroke="none" 
	d="
M34.239006,47.239170 
	C32.178455,47.740002 30.404415,47.953671 27.664707,48.283649 
	C30.294167,45.833927 32.234859,44.025890 34.895775,41.546860 
	C34.747078,43.717571 34.636295,45.334789 34.239006,47.239170 
z"/>
</svg>